<svg width="203" height="23" viewBox="0 0 203 23" fill="none" xmlns="http://www.w3.org/2000/svg">
<path d="M19.33 11.05C20.11 11.29 20.78 11.82 21.34 12.64C21.9 13.44 22.18 14.36 22.18 15.4C22.18 17.62 21.46 19.28 20.02 20.38C18.58 21.46 16.48 22 13.72 22H1.35999C1.13999 22 0.949988 21.92 0.789988 21.76C0.629988 21.6 0.549988 21.41 0.549988 21.19V1.81001C0.549988 1.59001 0.629988 1.40001 0.789988 1.24001C0.949988 1.08001 1.13999 1.00001 1.35999 1.00001H13.42C16.26 1.00001 18.35 1.52001 19.69 2.56001C21.05 3.58001 21.73 5.13001 21.73 7.21001V7.30001C21.73 8.26001 21.47 9.08001 20.95 9.76001C20.43 10.44 19.89 10.87 19.33 11.05ZM13.6 7.48001C13.6 7.12001 13.49 6.81001 13.27 6.55001C13.07 6.29001 12.77 6.16001 12.37 6.16001H8.34999V8.89001H12.37C12.77 8.89001 13.07 8.75001 13.27 8.47001C13.49 8.17001 13.6 7.84001 13.6 7.48001ZM12.7 16.84C13.16 16.84 13.5 16.69 13.72 16.39C13.96 16.07 14.08 15.72 14.08 15.34V15.31C14.08 14.93 13.95 14.6 13.69 14.32C13.45 14.04 13.12 13.9 12.7 13.9H8.34999V16.84H12.7Z" fill="#E7E7E7"/>
<path d="M32.2183 20.98C31.9583 21.66 31.5083 22 30.8683 22H25.1983C25.0183 22 24.8583 21.94 24.7183 21.82C24.5983 21.68 24.5383 21.52 24.5383 21.34L24.5683 21.16L31.1083 1.99001C31.1883 1.73001 31.3383 1.50001 31.5583 1.30001C31.7783 1.10001 32.0783 1.00001 32.4583 1.00001H40.7983C41.1783 1.00001 41.4783 1.10001 41.6983 1.30001C41.9183 1.50001 42.0683 1.73001 42.1483 1.99001L48.6883 21.16L48.7183 21.34C48.7183 21.52 48.6483 21.68 48.5083 21.82C48.3883 21.94 48.2383 22 48.0583 22H42.3883C41.7483 22 41.2983 21.66 41.0383 20.98L40.2883 18.88H32.9683L32.2183 20.98ZM36.6283 6.79001L34.4983 13.03H38.7583L36.6283 6.79001Z" fill="#E7E7E7"/>
<path d="M71.7165 1.00001C71.9365 1.00001 72.1265 1.08001 72.2865 1.24001C72.4465 1.40001 72.5266 1.59001 72.5266 1.81001V21.19C72.5266 21.41 72.4465 21.6 72.2865 21.76C72.1265 21.92 71.9365 22 71.7165 22H66.8865C66.4065 22 66.0065 21.79 65.6865 21.37L59.1465 13.03V21.19C59.1465 21.41 59.0666 21.6 58.9066 21.76C58.7466 21.92 58.5566 22 58.3366 22H52.7565C52.5365 22 52.3466 21.92 52.1866 21.76C52.0266 21.6 51.9465 21.41 51.9465 21.19V1.81001C51.9465 1.59001 52.0266 1.40001 52.1866 1.24001C52.3466 1.08001 52.5365 1.00001 52.7565 1.00001H57.6166C58.0966 1.00001 58.4865 1.20001 58.7865 1.60001L65.3265 10.63V1.81001C65.3265 1.59001 65.4065 1.40001 65.5665 1.24001C65.7265 1.08001 65.9166 1.00001 66.1366 1.00001H71.7165Z" fill="#E7E7E7"/>
<path d="M88.0248 1.00001C91.4048 1.00001 94.1048 1.73001 96.1248 3.19001C98.1648 4.65001 99.1848 6.91001 99.1848 9.97001V13.03C99.1848 16.15 98.1748 18.43 96.1548 19.87C94.1548 21.29 91.4448 22 88.0248 22H78.4548C78.2348 22 78.0448 21.92 77.8848 21.76C77.7248 21.6 77.6448 21.41 77.6448 21.19V1.81001C77.6448 1.59001 77.7248 1.40001 77.8848 1.24001C78.0448 1.08001 78.2348 1.00001 78.4548 1.00001H88.0248ZM88.1748 16.15C89.1148 16.15 89.8548 15.93 90.3948 15.49C90.9548 15.03 91.2348 14.39 91.2348 13.57V9.43001C91.2348 8.61001 90.9548 7.98001 90.3948 7.54001C89.8548 7.08001 89.1148 6.85001 88.1748 6.85001H85.4448V16.15H88.1748Z" fill="#E7E7E7"/>
<path d="M111.263 21.19C111.203 21.37 111.053 21.55 110.813 21.73C110.593 21.91 110.303 22 109.943 22H105.743C105.363 22 105.043 21.89 104.783 21.67C104.543 21.43 104.403 21.16 104.363 20.86L101.753 1.75001V1.66001C101.753 1.48001 101.813 1.33001 101.933 1.21001C102.073 1.07001 102.233 1.00001 102.413 1.00001H107.573C107.973 1.00001 108.293 1.12001 108.533 1.36001C108.793 1.60001 108.943 1.90001 108.983 2.26001L109.943 11.44L111.683 6.67001C111.743 6.47001 111.883 6.28001 112.103 6.10001C112.343 5.90001 112.643 5.80001 113.003 5.80001H115.043C115.403 5.80001 115.693 5.90001 115.913 6.10001C116.153 6.28001 116.303 6.47001 116.363 6.67001L118.103 11.44L119.063 2.26001C119.103 1.90001 119.243 1.60001 119.483 1.36001C119.743 1.12001 120.073 1.00001 120.473 1.00001H125.633C125.813 1.00001 125.963 1.07001 126.083 1.21001C126.223 1.33001 126.293 1.48001 126.293 1.66001V1.75001L123.683 20.86C123.643 21.16 123.493 21.43 123.233 21.67C122.993 21.89 122.683 22 122.303 22H118.103C117.743 22 117.443 21.91 117.203 21.73C116.983 21.55 116.843 21.37 116.783 21.19L114.023 14.86L111.263 21.19Z" fill="#E7E7E7"/>
<path d="M143.771 15.85H149.201C149.421 15.85 149.611 15.93 149.771 16.09C149.931 16.25 150.011 16.44 150.011 16.66V21.19C150.011 21.41 149.931 21.6 149.771 21.76C149.611 21.92 149.421 22 149.201 22H130.181C129.961 22 129.771 21.92 129.611 21.76C129.451 21.6 129.371 21.41 129.371 21.19V16.66C129.371 16.44 129.451 16.25 129.611 16.09C129.771 15.93 129.961 15.85 130.181 15.85H135.671V7.15001H130.181C129.961 7.15001 129.771 7.07001 129.611 6.91001C129.451 6.75001 129.371 6.56001 129.371 6.34001V1.81001C129.371 1.59001 129.451 1.40001 129.611 1.24001C129.771 1.08001 129.961 1.00001 130.181 1.00001H149.201C149.421 1.00001 149.611 1.08001 149.771 1.24001C149.931 1.40001 150.011 1.59001 150.011 1.81001V6.34001C150.011 6.56001 149.931 6.75001 149.771 6.91001C149.611 7.07001 149.421 7.15001 149.201 7.15001H143.771V15.85Z" fill="#E7E7E7"/>
<path d="M162.72 13.9C162.72 14.72 162.99 15.35 163.53 15.79C164.09 16.23 164.84 16.45 165.78 16.45C166.62 16.45 167.24 16.31 167.64 16.03C168.04 15.75 168.38 15.33 168.66 14.77C168.92 14.25 169.27 13.99 169.71 13.99H176.19C176.37 13.99 176.52 14.06 176.64 14.2C176.78 14.32 176.85 14.47 176.85 14.65C176.85 15.87 176.44 17.07 175.62 18.25C174.8 19.41 173.55 20.38 171.87 21.16C170.21 21.92 168.18 22.3 165.78 22.3C163.64 22.3 161.73 21.98 160.05 21.34C158.39 20.68 157.07 19.68 156.09 18.34C155.11 16.98 154.62 15.29 154.62 13.27V9.73001C154.62 7.71001 155.11 6.03001 156.09 4.69001C157.07 3.33001 158.39 2.33001 160.05 1.69001C161.73 1.03001 163.64 0.700012 165.78 0.700012C168.18 0.700012 170.21 1.09001 171.87 1.87001C173.55 2.63001 174.8 3.60001 175.62 4.78001C176.44 5.94001 176.85 7.13001 176.85 8.35001C176.85 8.53001 176.78 8.69001 176.64 8.83001C176.52 8.95001 176.37 9.01001 176.19 9.01001H169.71C169.27 9.01001 168.92 8.75001 168.66 8.23001C168.38 7.67001 168.04 7.25001 167.64 6.97001C167.24 6.69001 166.62 6.55001 165.78 6.55001C164.84 6.55001 164.09 6.77001 163.53 7.21001C162.99 7.65001 162.72 8.28001 162.72 9.10001V13.9Z" fill="#E7E7E7"/>
<path d="M201.258 1.00001C201.478 1.00001 201.668 1.08001 201.828 1.24001C201.988 1.40001 202.068 1.59001 202.068 1.81001V21.19C202.068 21.41 201.988 21.6 201.828 21.76C201.668 21.92 201.478 22 201.258 22H195.078C194.858 22 194.668 21.92 194.508 21.76C194.348 21.6 194.268 21.41 194.268 21.19V14.8H188.268V21.19C188.268 21.41 188.188 21.6 188.028 21.76C187.868 21.92 187.678 22 187.458 22H181.278C181.058 22 180.868 21.93 180.708 21.79C180.548 21.63 180.468 21.43 180.468 21.19V1.81001C180.468 1.59001 180.548 1.40001 180.708 1.24001C180.868 1.08001 181.058 1.00001 181.278 1.00001H187.458C187.678 1.00001 187.868 1.08001 188.028 1.24001C188.188 1.40001 188.268 1.59001 188.268 1.81001V7.96001H194.268V1.81001C194.268 1.59001 194.348 1.40001 194.508 1.24001C194.668 1.08001 194.858 1.00001 195.078 1.00001H201.258Z" fill="#E7E7E7"/>
</svg>
